<mxfile host="app.diagrams.net" modified="2021-07-03T07:33:43.515Z" agent="5.0 (Macintosh; Intel Mac OS X 10_15_7) AppleWebKit/537.36 (KHTML, like Gecko) Chrome/91.0.4472.114 Safari/537.36" etag="lO6N8-EPOXc6HuCkl5GY" version="14.6.13" type="github">
  <diagram id="C5RBs43oDa-KdzZeNtuy" name="Page-1">
    <mxGraphModel dx="1526" dy="618" grid="1" gridSize="10" guides="1" tooltips="1" connect="1" arrows="1" fold="1" page="1" pageScale="1" pageWidth="827" pageHeight="1169" math="0" shadow="0">
      <root>
        <mxCell id="WIyWlLk6GJQsqaUBKTNV-0" />
        <mxCell id="WIyWlLk6GJQsqaUBKTNV-1" parent="WIyWlLk6GJQsqaUBKTNV-0" />
        <mxCell id="wPF4Jwb9WKSw9Y4aqg9I-31" value="离线小时级任务&amp;nbsp; &amp;nbsp; &amp;nbsp; &amp;nbsp; &amp;nbsp; &amp;nbsp; &amp;nbsp; &amp;nbsp; &amp;nbsp; &amp;nbsp; &amp;nbsp; &amp;nbsp; &amp;nbsp; &amp;nbsp; &amp;nbsp; &amp;nbsp; &amp;nbsp; &amp;nbsp; &amp;nbsp; &amp;nbsp; &amp;nbsp; &amp;nbsp; &amp;nbsp; &amp;nbsp; &amp;nbsp; &amp;nbsp; &amp;nbsp; &amp;nbsp; &amp;nbsp; &amp;nbsp; &amp;nbsp; &amp;nbsp; &amp;nbsp; &amp;nbsp; &amp;nbsp; &amp;nbsp; &amp;nbsp; &amp;nbsp; &amp;nbsp; &amp;nbsp; &amp;nbsp; &amp;nbsp; &amp;nbsp; &amp;nbsp; &amp;nbsp; &amp;nbsp; &amp;nbsp;&lt;br&gt;&lt;br&gt;&lt;br&gt;&lt;br&gt;&lt;br&gt;&lt;br&gt;&lt;br&gt;&lt;br&gt;&lt;br&gt;&lt;br&gt;&lt;br&gt;&lt;br&gt;&lt;br&gt;&lt;br&gt;&lt;br&gt;&lt;br&gt;&lt;br&gt;&lt;br&gt;&lt;br&gt;&lt;br&gt;&lt;br&gt;&lt;br&gt;&lt;br&gt;&lt;br&gt;&lt;br&gt;&lt;br&gt;&lt;br&gt;&lt;br&gt;&lt;br&gt;&lt;br&gt;&lt;br&gt;&lt;br&gt;&lt;br&gt;&lt;br&gt;" style="rounded=0;whiteSpace=wrap;html=1;dashed=1" vertex="1" parent="WIyWlLk6GJQsqaUBKTNV-1">
          <mxGeometry x="330" y="30" width="440" height="510" as="geometry" />
        </mxCell>
        <mxCell id="wPF4Jwb9WKSw9Y4aqg9I-3" style="edgeStyle=orthogonalEdgeStyle;rounded=0;orthogonalLoop=1;jettySize=auto;html=1;entryX=0.5;entryY=0;entryDx=0;entryDy=0;entryPerimeter=0;" edge="1" parent="WIyWlLk6GJQsqaUBKTNV-1" source="wPF4Jwb9WKSw9Y4aqg9I-0" target="wPF4Jwb9WKSw9Y4aqg9I-2">
          <mxGeometry relative="1" as="geometry" />
        </mxCell>
        <mxCell id="wPF4Jwb9WKSw9Y4aqg9I-19" value="采样" style="edgeLabel;html=1;align=center;verticalAlign=middle;resizable=0;points=[];" vertex="1" connectable="0" parent="wPF4Jwb9WKSw9Y4aqg9I-3">
          <mxGeometry x="0.1824" y="-2" relative="1" as="geometry">
            <mxPoint as="offset" />
          </mxGeometry>
        </mxCell>
        <mxCell id="wPF4Jwb9WKSw9Y4aqg9I-7" style="edgeStyle=orthogonalEdgeStyle;rounded=0;orthogonalLoop=1;jettySize=auto;html=1;entryX=0.5;entryY=0;entryDx=0;entryDy=0;entryPerimeter=0;" edge="1" parent="WIyWlLk6GJQsqaUBKTNV-1" source="wPF4Jwb9WKSw9Y4aqg9I-0" target="wPF4Jwb9WKSw9Y4aqg9I-4">
          <mxGeometry relative="1" as="geometry" />
        </mxCell>
        <mxCell id="wPF4Jwb9WKSw9Y4aqg9I-0" value="query请求" style="rounded=1;whiteSpace=wrap;html=1;" vertex="1" parent="WIyWlLk6GJQsqaUBKTNV-1">
          <mxGeometry x="455" y="60" width="185" height="60" as="geometry" />
        </mxCell>
        <mxCell id="wPF4Jwb9WKSw9Y4aqg9I-8" style="edgeStyle=orthogonalEdgeStyle;rounded=0;orthogonalLoop=1;jettySize=auto;html=1;entryX=0.5;entryY=0;entryDx=0;entryDy=0;" edge="1" parent="WIyWlLk6GJQsqaUBKTNV-1" source="wPF4Jwb9WKSw9Y4aqg9I-2" target="wPF4Jwb9WKSw9Y4aqg9I-5">
          <mxGeometry relative="1" as="geometry" />
        </mxCell>
        <mxCell id="wPF4Jwb9WKSw9Y4aqg9I-2" value="Redis&lt;br&gt;{query+timestamp: count}&lt;br&gt;{query set}" style="shape=cylinder3;whiteSpace=wrap;html=1;boundedLbl=1;backgroundOutline=1;size=15;" vertex="1" parent="WIyWlLk6GJQsqaUBKTNV-1">
          <mxGeometry x="394.5" y="180" width="130" height="80" as="geometry" />
        </mxCell>
        <mxCell id="wPF4Jwb9WKSw9Y4aqg9I-9" style="edgeStyle=orthogonalEdgeStyle;rounded=0;orthogonalLoop=1;jettySize=auto;html=1;" edge="1" parent="WIyWlLk6GJQsqaUBKTNV-1" source="wPF4Jwb9WKSw9Y4aqg9I-4" target="wPF4Jwb9WKSw9Y4aqg9I-6">
          <mxGeometry relative="1" as="geometry" />
        </mxCell>
        <mxCell id="wPF4Jwb9WKSw9Y4aqg9I-4" value="query engage log" style="shape=cylinder3;whiteSpace=wrap;html=1;boundedLbl=1;backgroundOutline=1;size=15;" vertex="1" parent="WIyWlLk6GJQsqaUBKTNV-1">
          <mxGeometry x="590.5" y="180" width="109.5" height="80" as="geometry" />
        </mxCell>
        <mxCell id="wPF4Jwb9WKSw9Y4aqg9I-11" style="edgeStyle=orthogonalEdgeStyle;rounded=0;orthogonalLoop=1;jettySize=auto;html=1;exitX=0.5;exitY=1;exitDx=0;exitDy=0;entryX=0.5;entryY=0;entryDx=0;entryDy=0;entryPerimeter=0;" edge="1" parent="WIyWlLk6GJQsqaUBKTNV-1" source="wPF4Jwb9WKSw9Y4aqg9I-5" target="wPF4Jwb9WKSw9Y4aqg9I-10">
          <mxGeometry relative="1" as="geometry" />
        </mxCell>
        <mxCell id="wPF4Jwb9WKSw9Y4aqg9I-5" value="时序挖掘判断" style="rounded=1;whiteSpace=wrap;html=1;" vertex="1" parent="WIyWlLk6GJQsqaUBKTNV-1">
          <mxGeometry x="399.5" y="310" width="120" height="60" as="geometry" />
        </mxCell>
        <mxCell id="wPF4Jwb9WKSw9Y4aqg9I-12" style="edgeStyle=orthogonalEdgeStyle;rounded=0;orthogonalLoop=1;jettySize=auto;html=1;exitX=0;exitY=0.5;exitDx=0;exitDy=0;entryX=1;entryY=0.5;entryDx=0;entryDy=0;dashed=1;" edge="1" parent="WIyWlLk6GJQsqaUBKTNV-1" source="wPF4Jwb9WKSw9Y4aqg9I-6" target="wPF4Jwb9WKSw9Y4aqg9I-5">
          <mxGeometry relative="1" as="geometry" />
        </mxCell>
        <mxCell id="wPF4Jwb9WKSw9Y4aqg9I-17" value="依赖于时序" style="edgeLabel;html=1;align=center;verticalAlign=middle;resizable=0;points=[];" vertex="1" connectable="0" parent="wPF4Jwb9WKSw9Y4aqg9I-12">
          <mxGeometry x="0.0722" y="-4" relative="1" as="geometry">
            <mxPoint y="-16" as="offset" />
          </mxGeometry>
        </mxCell>
        <mxCell id="wPF4Jwb9WKSw9Y4aqg9I-13" style="edgeStyle=orthogonalEdgeStyle;rounded=0;orthogonalLoop=1;jettySize=auto;html=1;exitX=0.5;exitY=1;exitDx=0;exitDy=0;entryX=0.5;entryY=0;entryDx=0;entryDy=0;entryPerimeter=0;" edge="1" parent="WIyWlLk6GJQsqaUBKTNV-1" source="wPF4Jwb9WKSw9Y4aqg9I-6" target="wPF4Jwb9WKSw9Y4aqg9I-10">
          <mxGeometry relative="1" as="geometry" />
        </mxCell>
        <mxCell id="wPF4Jwb9WKSw9Y4aqg9I-6" value="新热词发现，话题聚合" style="rounded=1;whiteSpace=wrap;html=1;" vertex="1" parent="WIyWlLk6GJQsqaUBKTNV-1">
          <mxGeometry x="585.25" y="310" width="120" height="60" as="geometry" />
        </mxCell>
        <mxCell id="wPF4Jwb9WKSw9Y4aqg9I-24" style="edgeStyle=orthogonalEdgeStyle;rounded=0;orthogonalLoop=1;jettySize=auto;html=1;entryX=1;entryY=0.5;entryDx=0;entryDy=0;" edge="1" parent="WIyWlLk6GJQsqaUBKTNV-1" source="wPF4Jwb9WKSw9Y4aqg9I-10" target="wPF4Jwb9WKSw9Y4aqg9I-20">
          <mxGeometry relative="1" as="geometry" />
        </mxCell>
        <mxCell id="wPF4Jwb9WKSw9Y4aqg9I-10" value="时效性新热词" style="shape=cylinder3;whiteSpace=wrap;html=1;boundedLbl=1;backgroundOutline=1;size=15;" vertex="1" parent="WIyWlLk6GJQsqaUBKTNV-1">
          <mxGeometry x="491.5" y="410" width="112" height="80" as="geometry" />
        </mxCell>
        <mxCell id="wPF4Jwb9WKSw9Y4aqg9I-21" style="edgeStyle=orthogonalEdgeStyle;rounded=0;orthogonalLoop=1;jettySize=auto;html=1;entryX=0.5;entryY=0;entryDx=0;entryDy=0;" edge="1" parent="WIyWlLk6GJQsqaUBKTNV-1" source="wPF4Jwb9WKSw9Y4aqg9I-18" target="wPF4Jwb9WKSw9Y4aqg9I-20">
          <mxGeometry relative="1" as="geometry" />
        </mxCell>
        <mxCell id="wPF4Jwb9WKSw9Y4aqg9I-18" value="query请求" style="rounded=1;whiteSpace=wrap;html=1;" vertex="1" parent="WIyWlLk6GJQsqaUBKTNV-1">
          <mxGeometry x="130" y="60" width="120" height="60" as="geometry" />
        </mxCell>
        <mxCell id="wPF4Jwb9WKSw9Y4aqg9I-23" value="是" style="edgeStyle=orthogonalEdgeStyle;rounded=0;orthogonalLoop=1;jettySize=auto;html=1;entryX=0.5;entryY=0;entryDx=0;entryDy=0;" edge="1" parent="WIyWlLk6GJQsqaUBKTNV-1" source="wPF4Jwb9WKSw9Y4aqg9I-20" target="wPF4Jwb9WKSw9Y4aqg9I-22">
          <mxGeometry relative="1" as="geometry" />
        </mxCell>
        <mxCell id="wPF4Jwb9WKSw9Y4aqg9I-28" style="edgeStyle=orthogonalEdgeStyle;rounded=0;orthogonalLoop=1;jettySize=auto;html=1;entryX=0;entryY=0.5;entryDx=0;entryDy=0;" edge="1" parent="WIyWlLk6GJQsqaUBKTNV-1" source="wPF4Jwb9WKSw9Y4aqg9I-20" target="wPF4Jwb9WKSw9Y4aqg9I-27">
          <mxGeometry relative="1" as="geometry">
            <Array as="points">
              <mxPoint x="60" y="220" />
              <mxPoint x="60" y="580" />
            </Array>
          </mxGeometry>
        </mxCell>
        <mxCell id="wPF4Jwb9WKSw9Y4aqg9I-30" value="否" style="edgeLabel;html=1;align=center;verticalAlign=middle;resizable=0;points=[];" vertex="1" connectable="0" parent="wPF4Jwb9WKSw9Y4aqg9I-28">
          <mxGeometry x="-0.8917" y="1" relative="1" as="geometry">
            <mxPoint as="offset" />
          </mxGeometry>
        </mxCell>
        <mxCell id="wPF4Jwb9WKSw9Y4aqg9I-20" value="是否命中词库？" style="rhombus;whiteSpace=wrap;html=1;" vertex="1" parent="WIyWlLk6GJQsqaUBKTNV-1">
          <mxGeometry x="110" y="180" width="160" height="80" as="geometry" />
        </mxCell>
        <mxCell id="wPF4Jwb9WKSw9Y4aqg9I-26" style="edgeStyle=orthogonalEdgeStyle;rounded=0;orthogonalLoop=1;jettySize=auto;html=1;entryX=0.5;entryY=0;entryDx=0;entryDy=0;" edge="1" parent="WIyWlLk6GJQsqaUBKTNV-1" source="wPF4Jwb9WKSw9Y4aqg9I-22" target="wPF4Jwb9WKSw9Y4aqg9I-25">
          <mxGeometry relative="1" as="geometry" />
        </mxCell>
        <mxCell id="wPF4Jwb9WKSw9Y4aqg9I-22" value="时效性通道" style="rounded=1;whiteSpace=wrap;html=1;" vertex="1" parent="WIyWlLk6GJQsqaUBKTNV-1">
          <mxGeometry x="130" y="320" width="120" height="60" as="geometry" />
        </mxCell>
        <mxCell id="wPF4Jwb9WKSw9Y4aqg9I-29" style="edgeStyle=orthogonalEdgeStyle;rounded=0;orthogonalLoop=1;jettySize=auto;html=1;entryX=0.5;entryY=0;entryDx=0;entryDy=0;" edge="1" parent="WIyWlLk6GJQsqaUBKTNV-1" source="wPF4Jwb9WKSw9Y4aqg9I-25" target="wPF4Jwb9WKSw9Y4aqg9I-27">
          <mxGeometry relative="1" as="geometry" />
        </mxCell>
        <mxCell id="wPF4Jwb9WKSw9Y4aqg9I-25" value="时效性后处理" style="rounded=1;whiteSpace=wrap;html=1;" vertex="1" parent="WIyWlLk6GJQsqaUBKTNV-1">
          <mxGeometry x="130" y="421" width="120" height="60" as="geometry" />
        </mxCell>
        <mxCell id="wPF4Jwb9WKSw9Y4aqg9I-27" value="结束" style="ellipse;whiteSpace=wrap;html=1;" vertex="1" parent="WIyWlLk6GJQsqaUBKTNV-1">
          <mxGeometry x="130" y="540" width="120" height="80" as="geometry" />
        </mxCell>
      </root>
    </mxGraphModel>
  </diagram>
</mxfile>
